# xmcd CD database file
#
# Track frame offsets:
#	151
#	20162
#	39899
#	60839
#	92163
#	112736
#	130030
#	148666
#	171218
#	190504
#	207169
#	223048
#	239254
#
# Disc length: 3336 seconds
#
# Revision: 1
# Processed by: cddbd v1.5.1PL0 Copyright (c) Steve Scherf et al.
# Submitted via: CDex 1.51
#
DISCID=a90d060d
DTITLE=Sergio Cammariere - Dalla Pace Del Mare Lontano
DYEAR=2002
DGENRE=Jazz
TTITLE0=Sorella Mia
TTITLE1=Tempo Perduto
TTITLE2=Via da Questo Mare
TTITLE3=Cambiamenti del Mondo
TTITLE4=Dalla Pace del Mare Lontano
TTITLE5=Apri la Porta
TTITLE6=Canto nel Vento
TTITLE7=Le Porte del Sogno
TTITLE8=Il Mare
TTITLE9=Per Ricordarmi di Te
TTITLE10=Paese di Goal
TTITLE11=Vita d'Artista
TTITLE12=Cantautore Piccolino
EXTD=YEAR: 2002
EXTT0=
EXTT1=
EXTT2=
EXTT3=
EXTT4=
EXTT5=
EXTT6=
EXTT7=
EXTT8=
EXTT9=
EXTT10=
EXTT11=
EXTT12=
PLAYORDER=
